<?xml version="1.0" standalone="no"?>
<!DOCTYPE svg PUBLIC "-//W3C//DTD SVG 20010904//EN"
 "http://www.w3.org/TR/2001/REC-SVG-20010904/DTD/svg10.dtd">
<svg version="1.0" xmlns="http://www.w3.org/2000/svg"
 width="1024.000000pt" height="1024.000000pt" viewBox="0 0 1024.000000 1024.000000"
 preserveAspectRatio="xMidYMid meet">
<metadata>
Created by potrace 1.11, written by Peter Selinger 2001-2013
</metadata>
<g transform="translate(0.000000,1024.000000) scale(0.100000,-0.100000)"
fill="#000000" stroke="none">
<path d="M3058 8885 c-1 -1 -55 -5 -118 -9 -158 -7 -252 -22 -408 -62 -388
-100 -743 -315 -1054 -640 -90 -95 -173 -197 -265 -330 -45 -66 -146 -252
-182 -338 -69 -161 -138 -390 -156 -511 -3 -23 -7 -50 -9 -60 -35 -187 -41
-590 -12 -742 3 -12 7 -43 11 -70 11 -79 12 -84 35 -173 48 -190 104 -340 178
-480 42 -80 120 -209 132 -220 3 -3 11 -16 18 -29 25 -43 155 -205 223 -276
37 -38 90 -95 119 -125 29 -30 156 -163 284 -294 127 -132 251 -260 276 -286
25 -26 146 -152 270 -280 124 -128 245 -254 270 -280 113 -118 558 -577 671
-695 70 -71 150 -155 179 -185 29 -30 153 -158 275 -285 122 -126 242 -250
265 -275 349 -367 718 -741 765 -777 146 -110 342 -135 510 -66 79 34 153 93
300 245 153 158 558 577 656 679 30 31 146 152 259 269 113 116 236 244 274
283 37 40 170 177 295 306 124 129 249 258 276 286 209 217 515 534 640 663
83 86 166 172 185 192 19 20 138 144 265 274 126 131 244 254 263 274 19 20
62 66 96 102 89 94 206 245 235 303 8 15 18 27 23 27 4 0 8 4 8 9 0 5 19 42
43 83 41 69 69 127 104 208 8 19 21 49 28 65 39 87 107 332 120 430 2 22 7 53
10 68 21 109 28 526 10 647 -3 19 -7 51 -10 70 -3 19 -8 53 -11 75 -9 66 -63
284 -91 370 -34 103 -98 251 -147 340 -37 67 -148 244 -173 275 -7 8 -26 33
-43 55 -60 79 -70 91 -147 171 -85 89 -186 182 -247 229 -22 17 -47 37 -56 46
-67 64 -416 266 -492 284 -16 4 -28 11 -28 16 0 5 -6 9 -14 9 -7 0 -53 13
-102 29 -102 34 -251 70 -309 77 -22 2 -58 7 -80 10 -116 17 -456 18 -540 1
-11 -3 -47 -8 -80 -11 -236 -28 -593 -147 -814 -272 -53 -30 -264 -169 -281
-185 -8 -8 -48 -41 -89 -73 -41 -33 -178 -162 -304 -288 -127 -125 -231 -227
-233 -226 -278 277 -498 491 -529 513 -22 17 -51 40 -65 53 -42 38 -270 186
-360 234 -180 95 -455 191 -639 223 -19 3 -37 7 -40 9 -3 2 -33 7 -66 10 -33
3 -71 8 -85 11 -14 3 -79 8 -145 11 -66 3 -125 7 -132 9 -6 2 -13 2 -15 0z"/>
</g>
</svg>
